<svg width="106" height="104" viewBox="0 0 106 104" fill="none" xmlns="http://www.w3.org/2000/svg">
<g id="Carrinho">
<g id="&#240;&#159;&#166;&#134; icon &#34;cart&#34;">
<path id="Vector" d="M5.65033 23.8198C3.89295 24.1034 2.31924 25.0793 1.27541 26.5328C0.23158 27.9864 -0.196873 29.7985 0.084308 31.5706C0.365489 33.3427 1.33327 34.9296 2.77475 35.9821C4.21624 37.0347 6.01334 37.4667 7.77072 37.1832H27.6494L28.8421 40.524L34.2756 57.2282L39.7091 73.9324C40.2392 75.6697 42.4921 77.2733 44.2149 77.2733H90.5985C92.4538 77.2733 94.5742 75.6697 95.1043 73.9324L105.839 40.524C106.369 38.7868 105.574 37.1832 103.718 37.1832H44.8776L39.8416 27.5616C39.3053 26.4572 38.4771 25.5235 37.4482 24.8634C36.4194 24.2032 35.2298 23.8421 34.0106 23.8198L7.50567 23.8198C7.10891 23.7837 6.70972 23.7837 6.31295 23.8198C6.04814 23.8038 5.78262 23.8038 5.51781 23.8198L5.65033 23.8198ZM47.528 90.6366C43.8174 90.6366 40.9018 93.5766 40.9018 97.3183C40.9018 101.06 43.8174 104 47.528 104C51.2387 104 54.1543 101.06 54.1543 97.3183C54.1543 93.5766 51.2387 90.6366 47.528 90.6366ZM87.2854 90.6366C83.5747 90.6366 80.6591 93.5766 80.6591 97.3183C80.6591 101.06 83.5747 104 87.2854 104C90.9961 104 93.9116 101.06 93.9116 97.3183C93.9116 93.5766 90.9961 90.6366 87.2854 90.6366Z" fill="#6A0404"/>
<path id="Vector_2" d="M50.4684 7.97019C48.4035 8.69925 46.8831 10.268 45.9937 12.1972C45.1417 14.1132 44.9583 16.3764 45.7354 18.6146C46.4987 20.8127 48.0422 22.4662 49.9073 23.4677L67.4417 32.576L75.5114 14.4274C76.3633 12.5114 76.5468 10.2482 75.7696 8.01009C75.0063 5.81194 73.4628 4.15848 71.5978 3.15693C69.7466 2.19534 67.5878 1.92564 65.4854 2.66796C63.4206 3.39701 61.9002 4.96576 61.0107 6.895C60.1588 8.81099 59.9753 11.0742 60.7525 13.3123C59.9892 11.1142 58.4457 9.46071 56.5807 8.45916C54.7296 7.49758 52.5708 7.22788 50.4684 7.97019Z" fill="#6A0404" stroke="#FFEFD8" stroke-linejoin="round"/>
<path id="Vector_3" d="M59.1887 3.41967C57.0229 3.7316 55.23 4.97366 53.9867 6.69262C52.7829 8.40591 52.1681 10.5904 52.5007 12.938C52.8272 15.2436 54.0239 17.1672 55.6612 18.5141L71.1138 30.8748L82.517 14.6462C83.7208 12.9329 84.3355 10.7483 84.003 8.40082C83.6765 6.09522 82.4798 4.17158 80.8425 2.82472C79.2112 1.51977 77.1451 0.833505 74.9399 1.1511C72.7741 1.46303 70.9812 2.70509 69.7379 4.42405C68.5341 6.13735 67.9193 8.32187 68.2518 10.6694C67.9253 8.36379 66.7286 6.44015 65.0913 5.09328C63.46 3.78833 61.3939 3.10207 59.1887 3.41967Z" fill="#6A0404" stroke="#FFEFD8" stroke-linejoin="round"/>
<path id="Vector_4" d="M71.6103 1.14393C69.4449 0.829353 67.378 1.51308 65.7057 2.81031C64.0727 4.11326 62.8738 6.03543 62.5384 8.38254C62.2091 10.6877 62.8212 12.873 64.017 14.6297L75.4005 30.8723L90.8681 18.5305C92.501 17.2276 93.7 15.3054 94.0353 12.9583C94.3647 10.6531 93.7526 8.4678 92.5568 6.71113C91.355 4.99636 89.5635 3.75211 87.3588 3.4318C85.1933 3.11722 83.1264 3.80095 81.4541 5.09818C79.8212 6.40113 78.6222 8.3233 78.2869 10.6704C78.6162 8.36521 78.0041 6.17994 76.8083 4.42326C75.6065 2.70849 73.8151 1.46424 71.6103 1.14393Z" fill="#6A0404" stroke="#FFEFD8" stroke-linejoin="round"/>
</g>
</g>
</svg>
