<svg width="30" height="26" viewBox="0 0 30 26" fill="none" xmlns="http://www.w3.org/2000/svg">
<g id="Cora&#195;&#167;&#195;&#163;o OFF">
<path id="Vector" d="M8.54045 1C6.70711 1 5.07378 1.80938 3.84045 3.07625C2.64045 4.34311 1.87378 6.06745 1.87378 8.03812C1.87378 9.97361 2.64045 11.6979 3.84045 13L15.2071 25L26.5738 13C27.7738 11.7331 28.5404 10.0088 28.5404 8.03812C28.5404 6.10264 27.7738 4.3783 26.5738 3.07625C25.3738 1.80938 23.7404 1 21.8738 1C20.0404 1 18.4071 1.80938 17.1738 3.07625C15.9738 4.34311 15.2071 6.06745 15.2071 8.03812C15.2071 6.10264 14.4404 4.3783 13.2404 3.07625C12.0404 1.80938 10.4071 1 8.54045 1Z" stroke="#FFEFD8" stroke-width="2" stroke-linejoin="round"/>
</g>
</svg>
