<svg width="29" height="26" viewBox="0 0 29 26" fill="none" xmlns="http://www.w3.org/2000/svg">
<g id="Cora&#195;&#167;&#195;&#163;o ON">
<path id="Vector" d="M7.54045 1C5.70711 1 4.07378 1.80938 2.84045 3.07625C1.64045 4.34311 0.873779 6.06745 0.873779 8.03812C0.873779 9.97361 1.64045 11.6979 2.84045 13L14.2071 25L25.5738 13C26.7738 11.7331 27.5404 10.0088 27.5404 8.03812C27.5404 6.10264 26.7738 4.3783 25.5738 3.07625C24.3738 1.80938 22.7404 1 20.8738 1C19.0404 1 17.4071 1.80938 16.1738 3.07625C14.9738 4.34311 14.2071 6.06745 14.2071 8.03812C14.2071 6.10264 13.4404 4.3783 12.2404 3.07625C11.0404 1.80938 9.40711 1 7.54045 1Z" fill="#FFEFD8" stroke="#FFEFD8" stroke-linejoin="round"/>
</g>
</svg>
